# xmcd
#
# Track frame offsets: 
#        150
#        15775
#        33519
#        48628
#        68288
#        86970
#        105175
#        122950
#        141400
#        157297
#        173491
#        190979
#        200863
#
# Disc length: 2945 seconds
#
# Revision: 0
# Processed by: cddbd v1.5.2PL0 Copyright (c) Steve Scherf et al.
# Submitted via: ExactAudioCopyFreeDBPlugin 1.0
#
DISCID=b20b7f0d
DTITLE=Joe Robinson - Let Me Introduce You
DYEAR=2011
DGENRE=Blues
TTITLE0=Lethal Injection
TTITLE1=Skyline
TTITLE2=Hurricane
TTITLE3=Out Alive
TTITLE4=Adelaide
TTITLE5=Into the Blue
TTITLE6=One Heart at a Time
TTITLE7=Emily
TTITLE8=The Gremlin
TTITLE9=Barely Hangin on
TTITLE10=Keep it Together
TTITLE11=Uli's Jump
TTITLE12=Questions
EXTD=
EXTT0=
EXTT1=
EXTT2=
EXTT3=
EXTT4=
EXTT5=
EXTT6=
EXTT7=
EXTT8=
EXTT9=
EXTT10=
EXTT11=
EXTT12=
PLAYORDER=
